<?xml version="1.0" standalone="no"?>
<!DOCTYPE svg PUBLIC "-//W3C//DTD SVG 20010904//EN"
 "http://www.w3.org/TR/2001/REC-SVG-20010904/DTD/svg10.dtd">
<svg version="1.0" xmlns="http://www.w3.org/2000/svg"
 width="224.000000pt" height="224.000000pt" viewBox="0 0 224.000000 224.000000"
 preserveAspectRatio="xMidYMid meet">
<metadata>
Created by potrace 1.16, written by Peter Selinger 2001-2019
</metadata>
<g transform="translate(0.000000,224.000000) scale(0.100000,-0.100000)"
fill="#00f0f0" stroke="none">
<path d="M981 2229 c-257 -30 -548 -186 -706 -379 -279 -341 -345 -743 -189
-1151 52 -137 187 -326 300 -420 339 -282 745 -350 1155 -193 138 52 336 195
428 309 276 340 341 740 185 1146 -54 142 -191 331 -310 428 -260 211 -545
297 -863 260z m239 -160 c447 -45 804 -402 849 -848 55 -527 -325 -997 -848
-1050 -608 -63 -1113 442 -1050 1050 25 247 141 465 334 629 167 142 340 208
596 229 9 0 63 -4 119 -10z"/>
<path d="M755 1336 c-130 -60 -180 -207 -116 -342 45 -96 123 -145 228 -145
76 0 163 37 197 84 l21 28 -23 18 c-13 9 -40 26 -59 36 -31 17 -36 18 -47 4
-44 -60 -150 -50 -185 18 -15 30 -14 109 3 142 30 57 115 69 169 22 l33 -29
53 40 c52 39 52 40 34 61 -74 87 -201 113 -308 63z"/>
<path d="M1288 1298 l-14 -63 -57 -3 -57 -3 0 -49 0 -50 44 0 c41 0 43 -1 38
-25 -4 -23 -9 -25 -58 -25 l-54 0 0 -55 0 -55 39 0 39 0 -14 -52 c-7 -29 -14
-57 -14 -61 0 -4 26 -7 57 -5 62 3 56 -4 77 91 4 18 13 27 25 27 18 0 18 -3 5
-52 -7 -29 -14 -56 -14 -60 0 -5 25 -8 55 -8 l54 0 11 43 c6 23 13 50 16 60 4
14 17 17 65 17 l59 0 0 55 0 55 -45 0 c-45 0 -50 5 -39 34 5 12 20 16 60 16
l54 0 0 50 0 50 -44 0 -45 0 18 65 18 65 -57 0 c-55 0 -58 -1 -64 -27 -21 -86
-28 -103 -41 -103 -18 0 -18 11 -1 78 l14 52 -58 0 -59 0 -13 -62z"/>
</g>
</svg>
